<?xml version="1.0" encoding="utf-8"?>
<!-- Generator: Adobe Illustrator 25.2.1, SVG Export Plug-In . SVG Version: 6.00 Build 0)  -->
<svg version="1.1" id="Layer_1" xmlns="http://www.w3.org/2000/svg" xmlns:xlink="http://www.w3.org/1999/xlink" x="0px" y="0px"
	 viewBox="0 0 457.7 217.3" style="enable-background:new 0 0 457.7 217.3;" xml:space="preserve">
<style type="text/css">
	.st0{fill:#17509D;}
</style>
<rect x="0.5" y="140.2" class="st0" width="456.1" height="5.7"/>
<path class="st0" d="M192.2,118c-7.9,0-11.1-4.5-11.1-14V19.3c0-12.7,2.7-17.9,14.2-17.9h8.2c11.5,0,13.1,4.5,16.1,16.8l18.6,71.2
	l17.9-69.7c3.5-12.8,5.7-18.4,15.7-18.4h9.3c11.5,0,14.2,5,14.2,17.9v85c0,9.3-3.2,14-10.9,14s-11.1-4.3-11.1-14V24.8l-19.2,77.6
	c-2.9,11.1-6.6,15.6-15.4,15.6c-8.6,0-12.9-4.8-15.6-15.6l-19.7-77.6V104C203.2,113.5,199.9,118,192.2,118"/>
<path class="st0" d="M316.3,118c-7.9,0-11.1-4.5-11.1-14V19.3c0-12.7,2.7-17.9,14.3-17.9h8.2c11.5,0,13.1,4.5,16.1,16.8l18.6,71.2
	l18.1-69.7c3.4-12.7,5.6-18.3,15.6-18.3h9.3c11.5,0,14.2,5,14.2,17.9v85c0,9.3-3.2,14-10.9,14s-11.1-4.3-11.1-14V24.8l-19.5,77.6
	c-2.9,11.1-6.6,15.6-15.6,15.6c-8.6,0-12.9-4.8-15.6-15.6l-19.5-77.6V104C327.2,113.5,324,118,316.3,118"/>
<path class="st0" d="M66.6,74.6c-5.9,0-10-3.9-10-10.2c0-5.9,3.8-9.3,10-9.3h25.1c9.5,0,13.6,2.3,13.6,10.6v43.4
	c0,7-2.3,10.4-8.2,10.4c-4.7,0-7.3-2.7-8.6-7.7l-1.8-8.6c-8.4,11.5-19,16.7-33.3,16.7C21.9,119.9,0,96.2,0,59.9
	C0,23.2,21.5,0,54.1,0c10.6,0,19.9,2.2,28,6.1c11.8,6.1,17.9,14,17.9,21.3c0,6.6-4.7,11.5-10.2,11.5c-6.1,0-9-2.9-13.1-7.9
	C70.8,23.7,65,20.1,55.4,20.1c-18.5,0-30.6,14.3-30.6,39.6c0,25.1,12.5,39.6,31.7,39.6c14.7,0,25.5-9.1,27.8-24.6
	C84.2,74.6,66.6,74.6,66.6,74.6z"/>
<path class="st0" d="M122.5,49.9c-6.3,6.5-10.2,13.3-10.2,17.7c0,1.3,0.4,2.3,1.1,3s1.8,1.1,3.2,1.1c4.3,0,11.1-4.1,17.4-10.6
	c7.2-7.3,12.9-17,9.1-20.8C139.4,36.8,129.9,42.6,122.5,49.9"/>
<path class="st0" d="M152.8,49.9c-7.2,7.3-12.7,17.2-9.1,20.8c0.7,0.7,1.8,1.1,3.2,1.1c4.3,0,11.3-4.1,17.6-10.6
	c7.2-7.3,12.7-17,9.1-20.8C169.7,36.8,160,42.6,152.8,49.9"/>
<path class="st0" d="M435.8,50.6c-6.3,6.5-10.2,13.3-10.2,17.7c0,1.3,0.4,2.3,1.3,3c0.7,0.7,1.8,1.1,3.2,1.1
	c4.3,0,11.3-4.1,17.4-10.6c5.6-5.7,10.2-12.9,10.2-17.6c0-1.3-0.4-2.5-1.3-3.2C452.8,37.4,443.2,43.3,435.8,50.6"/>
<path class="st0" d="M46.7,191.5c0,2,0.2,3.4,0.2,4.3c0,13.3-7.9,20.8-21.5,20.8c-7.7,0-13.6-2.2-18.1-6.8
	c-4.5-4.5-6.8-10.8-6.8-17.6c0-7,2.3-13.1,7.2-17.6c4.5-4.5,10.8-6.8,17.7-6.8c7.3,0,13.1,2.7,17.6,8.1l-5.6,4.1
	c-3.2-3.6-7-5.4-12-5.4c-10,0-17.2,7-17.2,17.6s7.2,17.7,17.2,17.7c8.8,0,14-4.3,14-11.3v-0.7H28.2v-6.4H46.7L46.7,191.5z"/>
<path class="st0" d="M97.6,188.6v-13.4H99c6.8,0,10,1.3,10,7c0,5.6-3.4,6.5-10,6.5h-1.4V188.6z M97.1,194.5H98l15.6,21h8.6
	l-16.1-21.1c7-0.9,10.8-5.2,10.8-12.5c0-4.5-1.6-8.1-4.5-10.2c-2.9-2.3-6.6-2.7-11.7-2.7H90.1v46.8h7.2v-21.3H97.1z"/>
<path class="st0" d="M171.6,197.1l4.8-10.6c0.5-1.3,1.1-3,1.6-5.4c0.7,2.3,1.3,4.1,1.8,5.4l4.8,10.6H171.6z M192.6,215.3h8.1
	l-22.6-48.4l-22.6,48.4h8.1l5.4-12h18.5L192.6,215.3z"/>
<path class="st0" d="M277.6,185.9c-0.4,2.2-1.1,4.3-2.2,6.5l-12.2,24.9L251,191.8c-0.9-2-1.6-3.8-2.3-5.9c0,2.2-0.4,4.3-0.9,6.5
	l-5,22.9h-7l10.9-48.4l13.8,29.2c0.4,0.9,1.3,3,2.5,6.3c0.9-2.5,2-4.7,2.7-6.3l13.4-29.2l11.3,48.4h-7l-5.2-23.1
	C278.1,191.5,277.9,189.3,277.6,185.9"/>
<path class="st0" d="M369.1,185.9c-0.4,2.2-1.1,4.3-2.2,6.5l-12.1,24.9l-12.2-25.5c-0.9-2-1.6-3.8-2.3-5.9c0,2.2-0.4,4.3-0.9,6.5
	l-5,22.9h-7l11.1-48.4l13.8,29.2c0.4,0.9,1.3,3,2.5,6.3c0.9-2.5,2-4.7,2.7-6.3l13.4-29.2l11.3,48.4h-7l-5.2-23.1
	C369.7,191.5,369.5,189.3,369.1,185.9"/>
<path class="st0" d="M433.5,194l-15.8-25.5h7.9l9.9,16c0.2,0.4,0.9,1.6,2,3.8c0.5-1.4,1.3-2.9,2-3.9l10-15.8h7.5L440.8,194v21.3
	h-7.5V194H433.5z"/>
</svg>
